<svg xmlns="http://www.w3.org/2000/svg" id="prefigure-exp-log-act-blank-axes-figure" width="310" height="310" viewBox="0 0 310 310">
  <defs>
    <clipPath id="prefigure-exp-log-act-blank-axes-__clipPath-0">
      <rect x="5.0" y="5.0" width="300.0" height="300.0"/>
    </clipPath>
    <clipPath id="prefigure-exp-log-act-blank-axes-__clipPath-1">
      <rect x="5.0" y="5.0" width="300.0" height="300.0"/>
    </clipPath>
  </defs>
  <g id="prefigure-exp-log-act-blank-axes-grid-axes">
    <g id="prefigure-exp-log-act-blank-axes-grid" stroke="#ccc" stroke-width="1">
      <line x1="5.0" y1="305.0" x2="5.0" y2="5.0"/>
      <line x1="42.5" y1="305.0" x2="42.5" y2="5.0"/>
      <line x1="80.0" y1="305.0" x2="80.0" y2="5.0"/>
      <line x1="117.5" y1="305.0" x2="117.5" y2="5.0"/>
      <line x1="155.0" y1="305.0" x2="155.0" y2="5.0"/>
      <line x1="192.5" y1="305.0" x2="192.5" y2="5.0"/>
      <line x1="230.0" y1="305.0" x2="230.0" y2="5.0"/>
      <line x1="267.5" y1="305.0" x2="267.5" y2="5.0"/>
      <line x1="305.0" y1="305.0" x2="305.0" y2="5.0"/>
      <line x1="5.0" y1="305.0" x2="305.0" y2="305.0"/>
      <line x1="5.0" y1="267.5" x2="305.0" y2="267.5"/>
      <line x1="5.0" y1="230.0" x2="305.0" y2="230.0"/>
      <line x1="5.0" y1="192.5" x2="305.0" y2="192.5"/>
      <line x1="5.0" y1="155.0" x2="305.0" y2="155.0"/>
      <line x1="5.0" y1="117.5" x2="305.0" y2="117.5"/>
      <line x1="5.0" y1="80.0" x2="305.0" y2="80.0"/>
      <line x1="5.0" y1="42.5" x2="305.0" y2="42.5"/>
      <line x1="5.0" y1="5.0" x2="305.0" y2="5.0"/>
    </g>
    <g id="prefigure-exp-log-act-blank-axes-axes" stroke="black" stroke-width="2">
      <line id="prefigure-exp-log-act-blank-axes-__line-18" x1="5.0" y1="155.0" x2="305.0" y2="155.0" stroke="black" stroke-width="2"/>
      <g>
        <line id="prefigure-exp-log-act-blank-axes-__line-19" x1="42.5" y1="158.0" x2="42.5" y2="152.0"/>
        <line id="prefigure-exp-log-act-blank-axes-__line-20" x1="80.0" y1="158.0" x2="80.0" y2="152.0"/>
        <line id="prefigure-exp-log-act-blank-axes-__line-21" x1="117.5" y1="158.0" x2="117.5" y2="152.0"/>
        <line id="prefigure-exp-log-act-blank-axes-__line-22" x1="192.5" y1="158.0" x2="192.5" y2="152.0"/>
        <line id="prefigure-exp-log-act-blank-axes-__line-23" x1="230.0" y1="158.0" x2="230.0" y2="152.0"/>
        <line id="prefigure-exp-log-act-blank-axes-__line-24" x1="267.5" y1="158.0" x2="267.5" y2="152.0"/>
      </g>
      <line id="prefigure-exp-log-act-blank-axes-__line-25" x1="155.0" y1="305.0" x2="155.0" y2="5.0" stroke="black" stroke-width="2"/>
      <g>
        <line id="prefigure-exp-log-act-blank-axes-__line-26" x1="152.0" y1="267.5" x2="158.0" y2="267.5"/>
        <line id="prefigure-exp-log-act-blank-axes-__line-27" x1="152.0" y1="230.0" x2="158.0" y2="230.0"/>
        <line id="prefigure-exp-log-act-blank-axes-__line-28" x1="152.0" y1="192.5" x2="158.0" y2="192.5"/>
        <line id="prefigure-exp-log-act-blank-axes-__line-29" x1="152.0" y1="117.5" x2="158.0" y2="117.5"/>
        <line id="prefigure-exp-log-act-blank-axes-__line-30" x1="152.0" y1="80.0" x2="158.0" y2="80.0"/>
        <line id="prefigure-exp-log-act-blank-axes-__line-31" x1="152.0" y1="42.5" x2="158.0" y2="42.5"/>
      </g>
    </g>
    <g id="prefigure-exp-log-act-blank-axes-__label-0" transform="translate(301.0,151.0) translate(-6.5,-11.5)">
      <g id="prefigure-exp-log-act-blank-axes-__g-0">
        <svg xmlns:xlink="http://www.w3.org/1999/xlink" style="vertical-align: -0.200px" width="6.536px" height="11.528px" role="img" focusable="false" viewBox="0 -626 361 637" x="0.0" y="0.0">
          <defs>
            <path id="prefigure-exp-log-act-blank-axes-MJX-2-TEX-I-1D461" d="M26 385Q19 392 19 395Q19 399 22 411T27 425Q29 430 36 430T87 431H140L159 511Q162 522 166 540T173 566T179 586T187 603T197 615T211 624T229 626Q247 625 254 615T261 596Q261 589 252 549T232 470L222 433Q222 431 272 431H323Q330 424 330 420Q330 398 317 385H210L174 240Q135 80 135 68Q135 26 162 26Q197 26 230 60T283 144Q285 150 288 151T303 153H307Q322 153 322 145Q322 142 319 133Q314 117 301 95T267 48T216 6T155 -11Q125 -11 98 4T59 56Q57 64 57 83V101L92 241Q127 382 128 383Q128 385 77 385H26Z"/>
          </defs>
          <g stroke="currentColor" fill="currentColor" stroke-width="0" transform="scale(1,-1)">
            <g data-mml-node="math">
              <g data-mml-node="mi" data-semantic-type="identifier" data-semantic-role="latinletter" data-semantic-font="italic" data-semantic-annotation="clearspeak:simple" data-semantic-id="0" data-semantic-speech="t">
                <use data-c="1D461" xlink:href="#prefigure-exp-log-act-blank-axes-MJX-2-TEX-I-1D461"/>
              </g>
            </g>
          </g>
        </svg>
      </g>
    </g>
    <g id="prefigure-exp-log-act-blank-axes-__label-1" transform="translate(159.0,9.0) translate(0.0,-0.0)">
      <g id="prefigure-exp-log-act-blank-axes-__g-1">
        <svg xmlns:xlink="http://www.w3.org/1999/xlink" style="vertical-align: -3.712px" width="8.872px" height="11.712px" role="img" focusable="false" viewBox="0 -442 490 647" x="0.0" y="0.0">
          <defs>
            <path id="prefigure-exp-log-act-blank-axes-MJX-3-TEX-I-1D466" d="M21 287Q21 301 36 335T84 406T158 442Q199 442 224 419T250 355Q248 336 247 334Q247 331 231 288T198 191T182 105Q182 62 196 45T238 27Q261 27 281 38T312 61T339 94Q339 95 344 114T358 173T377 247Q415 397 419 404Q432 431 462 431Q475 431 483 424T494 412T496 403Q496 390 447 193T391 -23Q363 -106 294 -155T156 -205Q111 -205 77 -183T43 -117Q43 -95 50 -80T69 -58T89 -48T106 -45Q150 -45 150 -87Q150 -107 138 -122T115 -142T102 -147L99 -148Q101 -153 118 -160T152 -167H160Q177 -167 186 -165Q219 -156 247 -127T290 -65T313 -9T321 21L315 17Q309 13 296 6T270 -6Q250 -11 231 -11Q185 -11 150 11T104 82Q103 89 103 113Q103 170 138 262T173 379Q173 380 173 381Q173 390 173 393T169 400T158 404H154Q131 404 112 385T82 344T65 302T57 280Q55 278 41 278H27Q21 284 21 287Z"/>
          </defs>
          <g stroke="currentColor" fill="currentColor" stroke-width="0" transform="scale(1,-1)">
            <g data-mml-node="math">
              <g data-mml-node="mi" data-semantic-type="identifier" data-semantic-role="latinletter" data-semantic-font="italic" data-semantic-annotation="clearspeak:simple" data-semantic-id="0" data-semantic-speech="y">
                <use data-c="1D466" xlink:href="#prefigure-exp-log-act-blank-axes-MJX-3-TEX-I-1D466"/>
              </g>
            </g>
          </g>
        </svg>
      </g>
    </g>
    <g id="prefigure-exp-log-act-blank-axes-__label-2" transform="translate(42.5,166.0) translate(-7.5,-0.0)">
      <g id="prefigure-exp-log-act-blank-axes-__g-2">
        <svg xmlns:xlink="http://www.w3.org/1999/xlink" style="vertical-align: -0.400px" width="15.080px" height="12.456px" role="img" focusable="false" viewBox="0 -666 833 688" x="0.0" y="0.0">
          <defs>
            <path id="prefigure-exp-log-act-blank-axes-MJX-4-TEX-N-2D" d="M11 179V252H277V179H11Z"/>
            <path id="prefigure-exp-log-act-blank-axes-MJX-4-TEX-N-36" d="M42 313Q42 476 123 571T303 666Q372 666 402 630T432 550Q432 525 418 510T379 495Q356 495 341 509T326 548Q326 592 373 601Q351 623 311 626Q240 626 194 566Q147 500 147 364L148 360Q153 366 156 373Q197 433 263 433H267Q313 433 348 414Q372 400 396 374T435 317Q456 268 456 210V192Q456 169 451 149Q440 90 387 34T253 -22Q225 -22 199 -14T143 16T92 75T56 172T42 313ZM257 397Q227 397 205 380T171 335T154 278T148 216Q148 133 160 97T198 39Q222 21 251 21Q302 21 329 59Q342 77 347 104T352 209Q352 289 347 316T329 361Q302 397 257 397Z"/>
          </defs>
          <g stroke="currentColor" fill="currentColor" stroke-width="0" transform="scale(1,-1)">
            <g data-mml-node="math">
              <g data-mml-node="mtext" data-semantic-type="text" data-semantic-role="unknown" data-semantic-font="normal" data-semantic-annotation="clearspeak:unit" data-semantic-id="0" data-semantic-speech="hyphen 6">
                <use data-c="2D" xlink:href="#prefigure-exp-log-act-blank-axes-MJX-4-TEX-N-2D"/>
                <use data-c="36" xlink:href="#prefigure-exp-log-act-blank-axes-MJX-4-TEX-N-36" transform="translate(333,0)"/>
              </g>
            </g>
          </g>
        </svg>
      </g>
    </g>
    <g id="prefigure-exp-log-act-blank-axes-__label-3" transform="translate(80.0,166.0) translate(-7.5,-0.0)">
      <g id="prefigure-exp-log-act-blank-axes-__g-3">
        <svg xmlns:xlink="http://www.w3.org/1999/xlink" style="vertical-align: 0.000px" width="15.080px" height="12.256px" role="img" focusable="false" viewBox="0 -677 833 677" x="0.0" y="0.0">
          <defs>
            <path id="prefigure-exp-log-act-blank-axes-MJX-5-TEX-N-2D" d="M11 179V252H277V179H11Z"/>
            <path id="prefigure-exp-log-act-blank-axes-MJX-5-TEX-N-34" d="M462 0Q444 3 333 3Q217 3 199 0H190V46H221Q241 46 248 46T265 48T279 53T286 61Q287 63 287 115V165H28V211L179 442Q332 674 334 675Q336 677 355 677H373L379 671V211H471V165H379V114Q379 73 379 66T385 54Q393 47 442 46H471V0H462ZM293 211V545L74 212L183 211H293Z"/>
          </defs>
          <g stroke="currentColor" fill="currentColor" stroke-width="0" transform="scale(1,-1)">
            <g data-mml-node="math">
              <g data-mml-node="mtext" data-semantic-type="text" data-semantic-role="unknown" data-semantic-font="normal" data-semantic-annotation="clearspeak:unit" data-semantic-id="0" data-semantic-speech="hyphen 4">
                <use data-c="2D" xlink:href="#prefigure-exp-log-act-blank-axes-MJX-5-TEX-N-2D"/>
                <use data-c="34" xlink:href="#prefigure-exp-log-act-blank-axes-MJX-5-TEX-N-34" transform="translate(333,0)"/>
              </g>
            </g>
          </g>
        </svg>
      </g>
    </g>
    <g id="prefigure-exp-log-act-blank-axes-__label-4" transform="translate(117.5,166.0) translate(-7.5,-0.0)">
      <g id="prefigure-exp-log-act-blank-axes-__g-4">
        <svg xmlns:xlink="http://www.w3.org/1999/xlink" style="vertical-align: 0.000px" width="15.080px" height="12.056px" role="img" focusable="false" viewBox="0 -666 833 666" x="0.0" y="0.0">
          <defs>
            <path id="prefigure-exp-log-act-blank-axes-MJX-6-TEX-N-2D" d="M11 179V252H277V179H11Z"/>
            <path id="prefigure-exp-log-act-blank-axes-MJX-6-TEX-N-32" d="M109 429Q82 429 66 447T50 491Q50 562 103 614T235 666Q326 666 387 610T449 465Q449 422 429 383T381 315T301 241Q265 210 201 149L142 93L218 92Q375 92 385 97Q392 99 409 186V189H449V186Q448 183 436 95T421 3V0H50V19V31Q50 38 56 46T86 81Q115 113 136 137Q145 147 170 174T204 211T233 244T261 278T284 308T305 340T320 369T333 401T340 431T343 464Q343 527 309 573T212 619Q179 619 154 602T119 569T109 550Q109 549 114 549Q132 549 151 535T170 489Q170 464 154 447T109 429Z"/>
          </defs>
          <g stroke="currentColor" fill="currentColor" stroke-width="0" transform="scale(1,-1)">
            <g data-mml-node="math">
              <g data-mml-node="mtext" data-semantic-type="text" data-semantic-role="unknown" data-semantic-font="normal" data-semantic-annotation="clearspeak:unit" data-semantic-id="0" data-semantic-speech="hyphen 2">
                <use data-c="2D" xlink:href="#prefigure-exp-log-act-blank-axes-MJX-6-TEX-N-2D"/>
                <use data-c="32" xlink:href="#prefigure-exp-log-act-blank-axes-MJX-6-TEX-N-32" transform="translate(333,0)"/>
              </g>
            </g>
          </g>
        </svg>
      </g>
    </g>
    <g id="prefigure-exp-log-act-blank-axes-__label-5" transform="translate(192.5,166.0) translate(-4.5,-0.0)">
      <g id="prefigure-exp-log-act-blank-axes-__g-5">
        <svg xmlns:xlink="http://www.w3.org/1999/xlink" style="vertical-align: 0.000px" width="9.048px" height="12.056px" role="img" focusable="false" viewBox="0 -666 500 666" x="0.0" y="0.0">
          <defs>
            <path id="prefigure-exp-log-act-blank-axes-MJX-7-TEX-N-32" d="M109 429Q82 429 66 447T50 491Q50 562 103 614T235 666Q326 666 387 610T449 465Q449 422 429 383T381 315T301 241Q265 210 201 149L142 93L218 92Q375 92 385 97Q392 99 409 186V189H449V186Q448 183 436 95T421 3V0H50V19V31Q50 38 56 46T86 81Q115 113 136 137Q145 147 170 174T204 211T233 244T261 278T284 308T305 340T320 369T333 401T340 431T343 464Q343 527 309 573T212 619Q179 619 154 602T119 569T109 550Q109 549 114 549Q132 549 151 535T170 489Q170 464 154 447T109 429Z"/>
          </defs>
          <g stroke="currentColor" fill="currentColor" stroke-width="0" transform="scale(1,-1)">
            <g data-mml-node="math">
              <g data-mml-node="mtext" data-semantic-type="text" data-semantic-role="integer" data-semantic-font="normal" data-semantic-annotation="clearspeak:unit" data-semantic-id="0" data-semantic-speech="2">
                <use data-c="32" xlink:href="#prefigure-exp-log-act-blank-axes-MJX-7-TEX-N-32"/>
              </g>
            </g>
          </g>
        </svg>
      </g>
    </g>
    <g id="prefigure-exp-log-act-blank-axes-__label-6" transform="translate(230.0,166.0) translate(-4.5,-0.0)">
      <g id="prefigure-exp-log-act-blank-axes-__g-6">
        <svg xmlns:xlink="http://www.w3.org/1999/xlink" style="vertical-align: 0.000px" width="9.048px" height="12.256px" role="img" focusable="false" viewBox="0 -677 500 677" x="0.0" y="0.0">
          <defs>
            <path id="prefigure-exp-log-act-blank-axes-MJX-8-TEX-N-34" d="M462 0Q444 3 333 3Q217 3 199 0H190V46H221Q241 46 248 46T265 48T279 53T286 61Q287 63 287 115V165H28V211L179 442Q332 674 334 675Q336 677 355 677H373L379 671V211H471V165H379V114Q379 73 379 66T385 54Q393 47 442 46H471V0H462ZM293 211V545L74 212L183 211H293Z"/>
          </defs>
          <g stroke="currentColor" fill="currentColor" stroke-width="0" transform="scale(1,-1)">
            <g data-mml-node="math">
              <g data-mml-node="mtext" data-semantic-type="text" data-semantic-role="integer" data-semantic-font="normal" data-semantic-annotation="clearspeak:unit" data-semantic-id="0" data-semantic-speech="4">
                <use data-c="34" xlink:href="#prefigure-exp-log-act-blank-axes-MJX-8-TEX-N-34"/>
              </g>
            </g>
          </g>
        </svg>
      </g>
    </g>
    <g id="prefigure-exp-log-act-blank-axes-__label-7" transform="translate(267.5,166.0) translate(-4.5,-0.0)">
      <g id="prefigure-exp-log-act-blank-axes-__g-7">
        <svg xmlns:xlink="http://www.w3.org/1999/xlink" style="vertical-align: -0.400px" width="9.048px" height="12.456px" role="img" focusable="false" viewBox="0 -666 500 688" x="0.0" y="0.0">
          <defs>
            <path id="prefigure-exp-log-act-blank-axes-MJX-9-TEX-N-36" d="M42 313Q42 476 123 571T303 666Q372 666 402 630T432 550Q432 525 418 510T379 495Q356 495 341 509T326 548Q326 592 373 601Q351 623 311 626Q240 626 194 566Q147 500 147 364L148 360Q153 366 156 373Q197 433 263 433H267Q313 433 348 414Q372 400 396 374T435 317Q456 268 456 210V192Q456 169 451 149Q440 90 387 34T253 -22Q225 -22 199 -14T143 16T92 75T56 172T42 313ZM257 397Q227 397 205 380T171 335T154 278T148 216Q148 133 160 97T198 39Q222 21 251 21Q302 21 329 59Q342 77 347 104T352 209Q352 289 347 316T329 361Q302 397 257 397Z"/>
          </defs>
          <g stroke="currentColor" fill="currentColor" stroke-width="0" transform="scale(1,-1)">
            <g data-mml-node="math">
              <g data-mml-node="mtext" data-semantic-type="text" data-semantic-role="integer" data-semantic-font="normal" data-semantic-annotation="clearspeak:unit" data-semantic-id="0" data-semantic-speech="6">
                <use data-c="36" xlink:href="#prefigure-exp-log-act-blank-axes-MJX-9-TEX-N-36"/>
              </g>
            </g>
          </g>
        </svg>
      </g>
    </g>
    <g id="prefigure-exp-log-act-blank-axes-__label-8" transform="translate(144.0,267.5) translate(-15.1,-6.2)">
      <g id="prefigure-exp-log-act-blank-axes-__g-8">
        <svg xmlns:xlink="http://www.w3.org/1999/xlink" style="vertical-align: -0.400px" width="15.080px" height="12.456px" role="img" focusable="false" viewBox="0 -666 833 688" x="0.0" y="0.0">
          <defs>
            <path id="prefigure-exp-log-act-blank-axes-MJX-10-TEX-N-2D" d="M11 179V252H277V179H11Z"/>
            <path id="prefigure-exp-log-act-blank-axes-MJX-10-TEX-N-36" d="M42 313Q42 476 123 571T303 666Q372 666 402 630T432 550Q432 525 418 510T379 495Q356 495 341 509T326 548Q326 592 373 601Q351 623 311 626Q240 626 194 566Q147 500 147 364L148 360Q153 366 156 373Q197 433 263 433H267Q313 433 348 414Q372 400 396 374T435 317Q456 268 456 210V192Q456 169 451 149Q440 90 387 34T253 -22Q225 -22 199 -14T143 16T92 75T56 172T42 313ZM257 397Q227 397 205 380T171 335T154 278T148 216Q148 133 160 97T198 39Q222 21 251 21Q302 21 329 59Q342 77 347 104T352 209Q352 289 347 316T329 361Q302 397 257 397Z"/>
          </defs>
          <g stroke="currentColor" fill="currentColor" stroke-width="0" transform="scale(1,-1)">
            <g data-mml-node="math">
              <g data-mml-node="mtext" data-semantic-type="text" data-semantic-role="unknown" data-semantic-font="normal" data-semantic-annotation="clearspeak:unit" data-semantic-id="0" data-semantic-speech="hyphen 6">
                <use data-c="2D" xlink:href="#prefigure-exp-log-act-blank-axes-MJX-10-TEX-N-2D"/>
                <use data-c="36" xlink:href="#prefigure-exp-log-act-blank-axes-MJX-10-TEX-N-36" transform="translate(333,0)"/>
              </g>
            </g>
          </g>
        </svg>
      </g>
    </g>
    <g id="prefigure-exp-log-act-blank-axes-__label-9" transform="translate(144.0,230.0) translate(-15.1,-6.1)">
      <g id="prefigure-exp-log-act-blank-axes-__g-9">
        <svg xmlns:xlink="http://www.w3.org/1999/xlink" style="vertical-align: 0.000px" width="15.080px" height="12.256px" role="img" focusable="false" viewBox="0 -677 833 677" x="0.0" y="0.0">
          <defs>
            <path id="prefigure-exp-log-act-blank-axes-MJX-11-TEX-N-2D" d="M11 179V252H277V179H11Z"/>
            <path id="prefigure-exp-log-act-blank-axes-MJX-11-TEX-N-34" d="M462 0Q444 3 333 3Q217 3 199 0H190V46H221Q241 46 248 46T265 48T279 53T286 61Q287 63 287 115V165H28V211L179 442Q332 674 334 675Q336 677 355 677H373L379 671V211H471V165H379V114Q379 73 379 66T385 54Q393 47 442 46H471V0H462ZM293 211V545L74 212L183 211H293Z"/>
          </defs>
          <g stroke="currentColor" fill="currentColor" stroke-width="0" transform="scale(1,-1)">
            <g data-mml-node="math">
              <g data-mml-node="mtext" data-semantic-type="text" data-semantic-role="unknown" data-semantic-font="normal" data-semantic-annotation="clearspeak:unit" data-semantic-id="0" data-semantic-speech="hyphen 4">
                <use data-c="2D" xlink:href="#prefigure-exp-log-act-blank-axes-MJX-11-TEX-N-2D"/>
                <use data-c="34" xlink:href="#prefigure-exp-log-act-blank-axes-MJX-11-TEX-N-34" transform="translate(333,0)"/>
              </g>
            </g>
          </g>
        </svg>
      </g>
    </g>
    <g id="prefigure-exp-log-act-blank-axes-__label-10" transform="translate(144.0,192.5) translate(-15.1,-6.0)">
      <g id="prefigure-exp-log-act-blank-axes-__g-10">
        <svg xmlns:xlink="http://www.w3.org/1999/xlink" style="vertical-align: 0.000px" width="15.080px" height="12.056px" role="img" focusable="false" viewBox="0 -666 833 666" x="0.0" y="0.0">
          <defs>
            <path id="prefigure-exp-log-act-blank-axes-MJX-12-TEX-N-2D" d="M11 179V252H277V179H11Z"/>
            <path id="prefigure-exp-log-act-blank-axes-MJX-12-TEX-N-32" d="M109 429Q82 429 66 447T50 491Q50 562 103 614T235 666Q326 666 387 610T449 465Q449 422 429 383T381 315T301 241Q265 210 201 149L142 93L218 92Q375 92 385 97Q392 99 409 186V189H449V186Q448 183 436 95T421 3V0H50V19V31Q50 38 56 46T86 81Q115 113 136 137Q145 147 170 174T204 211T233 244T261 278T284 308T305 340T320 369T333 401T340 431T343 464Q343 527 309 573T212 619Q179 619 154 602T119 569T109 550Q109 549 114 549Q132 549 151 535T170 489Q170 464 154 447T109 429Z"/>
          </defs>
          <g stroke="currentColor" fill="currentColor" stroke-width="0" transform="scale(1,-1)">
            <g data-mml-node="math">
              <g data-mml-node="mtext" data-semantic-type="text" data-semantic-role="unknown" data-semantic-font="normal" data-semantic-annotation="clearspeak:unit" data-semantic-id="0" data-semantic-speech="hyphen 2">
                <use data-c="2D" xlink:href="#prefigure-exp-log-act-blank-axes-MJX-12-TEX-N-2D"/>
                <use data-c="32" xlink:href="#prefigure-exp-log-act-blank-axes-MJX-12-TEX-N-32" transform="translate(333,0)"/>
              </g>
            </g>
          </g>
        </svg>
      </g>
    </g>
    <g id="prefigure-exp-log-act-blank-axes-__label-11" transform="translate(144.0,117.5) translate(-9.0,-6.0)">
      <g id="prefigure-exp-log-act-blank-axes-__g-11">
        <svg xmlns:xlink="http://www.w3.org/1999/xlink" style="vertical-align: 0.000px" width="9.048px" height="12.056px" role="img" focusable="false" viewBox="0 -666 500 666" x="0.0" y="0.0">
          <defs>
            <path id="prefigure-exp-log-act-blank-axes-MJX-13-TEX-N-32" d="M109 429Q82 429 66 447T50 491Q50 562 103 614T235 666Q326 666 387 610T449 465Q449 422 429 383T381 315T301 241Q265 210 201 149L142 93L218 92Q375 92 385 97Q392 99 409 186V189H449V186Q448 183 436 95T421 3V0H50V19V31Q50 38 56 46T86 81Q115 113 136 137Q145 147 170 174T204 211T233 244T261 278T284 308T305 340T320 369T333 401T340 431T343 464Q343 527 309 573T212 619Q179 619 154 602T119 569T109 550Q109 549 114 549Q132 549 151 535T170 489Q170 464 154 447T109 429Z"/>
          </defs>
          <g stroke="currentColor" fill="currentColor" stroke-width="0" transform="scale(1,-1)">
            <g data-mml-node="math">
              <g data-mml-node="mtext" data-semantic-type="text" data-semantic-role="integer" data-semantic-font="normal" data-semantic-annotation="clearspeak:unit" data-semantic-id="0" data-semantic-speech="2">
                <use data-c="32" xlink:href="#prefigure-exp-log-act-blank-axes-MJX-13-TEX-N-32"/>
              </g>
            </g>
          </g>
        </svg>
      </g>
    </g>
    <g id="prefigure-exp-log-act-blank-axes-__label-12" transform="translate(144.0,80.0) translate(-9.0,-6.1)">
      <g id="prefigure-exp-log-act-blank-axes-__g-12">
        <svg xmlns:xlink="http://www.w3.org/1999/xlink" style="vertical-align: 0.000px" width="9.048px" height="12.256px" role="img" focusable="false" viewBox="0 -677 500 677" x="0.0" y="0.0">
          <defs>
            <path id="prefigure-exp-log-act-blank-axes-MJX-14-TEX-N-34" d="M462 0Q444 3 333 3Q217 3 199 0H190V46H221Q241 46 248 46T265 48T279 53T286 61Q287 63 287 115V165H28V211L179 442Q332 674 334 675Q336 677 355 677H373L379 671V211H471V165H379V114Q379 73 379 66T385 54Q393 47 442 46H471V0H462ZM293 211V545L74 212L183 211H293Z"/>
          </defs>
          <g stroke="currentColor" fill="currentColor" stroke-width="0" transform="scale(1,-1)">
            <g data-mml-node="math">
              <g data-mml-node="mtext" data-semantic-type="text" data-semantic-role="integer" data-semantic-font="normal" data-semantic-annotation="clearspeak:unit" data-semantic-id="0" data-semantic-speech="4">
                <use data-c="34" xlink:href="#prefigure-exp-log-act-blank-axes-MJX-14-TEX-N-34"/>
              </g>
            </g>
          </g>
        </svg>
      </g>
    </g>
    <g id="prefigure-exp-log-act-blank-axes-__label-13" transform="translate(144.0,42.5) translate(-9.0,-6.2)">
      <g id="prefigure-exp-log-act-blank-axes-__g-13">
        <svg xmlns:xlink="http://www.w3.org/1999/xlink" style="vertical-align: -0.400px" width="9.048px" height="12.456px" role="img" focusable="false" viewBox="0 -666 500 688" x="0.0" y="0.0">
          <defs>
            <path id="prefigure-exp-log-act-blank-axes-MJX-15-TEX-N-36" d="M42 313Q42 476 123 571T303 666Q372 666 402 630T432 550Q432 525 418 510T379 495Q356 495 341 509T326 548Q326 592 373 601Q351 623 311 626Q240 626 194 566Q147 500 147 364L148 360Q153 366 156 373Q197 433 263 433H267Q313 433 348 414Q372 400 396 374T435 317Q456 268 456 210V192Q456 169 451 149Q440 90 387 34T253 -22Q225 -22 199 -14T143 16T92 75T56 172T42 313ZM257 397Q227 397 205 380T171 335T154 278T148 216Q148 133 160 97T198 39Q222 21 251 21Q302 21 329 59Q342 77 347 104T352 209Q352 289 347 316T329 361Q302 397 257 397Z"/>
          </defs>
          <g stroke="currentColor" fill="currentColor" stroke-width="0" transform="scale(1,-1)">
            <g data-mml-node="math">
              <g data-mml-node="mtext" data-semantic-type="text" data-semantic-role="integer" data-semantic-font="normal" data-semantic-annotation="clearspeak:unit" data-semantic-id="0" data-semantic-speech="6">
                <use data-c="36" xlink:href="#prefigure-exp-log-act-blank-axes-MJX-15-TEX-N-36"/>
              </g>
            </g>
          </g>
        </svg>
      </g>
    </g>
  </g>
</svg>
