<svg xmlns="http://www.w3.org/2000/svg" id="diagram" width="310" height="310">
  <defs>
    <clipPath id="clipPath-0">
      <rect x="5.0" y="5.0" width="300.0" height="300.0"/>
    </clipPath>
    <clipPath id="clipPath-1">
      <rect x="5.0" y="5.0" width="300.0" height="300.0"/>
    </clipPath>
  </defs>
  <g id="grid-axes">
    <g id="grid" stroke="#ccc" stroke-width="1">
      <line id="line-0" x1="5.0" y1="305.0" x2="5.0" y2="5.0"/>
      <line id="line-1" x1="26.4" y1="305.0" x2="26.4" y2="5.0"/>
      <line id="line-2" x1="47.9" y1="305.0" x2="47.9" y2="5.0"/>
      <line id="line-3" x1="69.3" y1="305.0" x2="69.3" y2="5.0"/>
      <line id="line-4" x1="90.7" y1="305.0" x2="90.7" y2="5.0"/>
      <line id="line-5" x1="112.1" y1="305.0" x2="112.1" y2="5.0"/>
      <line id="line-6" x1="133.6" y1="305.0" x2="133.6" y2="5.0"/>
      <line id="line-7" x1="155.0" y1="305.0" x2="155.0" y2="5.0"/>
      <line id="line-8" x1="176.4" y1="305.0" x2="176.4" y2="5.0"/>
      <line id="line-9" x1="197.9" y1="305.0" x2="197.9" y2="5.0"/>
      <line id="line-10" x1="219.3" y1="305.0" x2="219.3" y2="5.0"/>
      <line id="line-11" x1="240.7" y1="305.0" x2="240.7" y2="5.0"/>
      <line id="line-12" x1="262.1" y1="305.0" x2="262.1" y2="5.0"/>
      <line id="line-13" x1="283.6" y1="305.0" x2="283.6" y2="5.0"/>
      <line id="line-14" x1="305.0" y1="305.0" x2="305.0" y2="5.0"/>
      <line id="line-15" x1="5.0" y1="305.0" x2="305.0" y2="305.0"/>
      <line id="line-16" x1="5.0" y1="283.6" x2="305.0" y2="283.6"/>
      <line id="line-17" x1="5.0" y1="262.1" x2="305.0" y2="262.1"/>
      <line id="line-18" x1="5.0" y1="240.7" x2="305.0" y2="240.7"/>
      <line id="line-19" x1="5.0" y1="219.3" x2="305.0" y2="219.3"/>
      <line id="line-20" x1="5.0" y1="197.9" x2="305.0" y2="197.9"/>
      <line id="line-21" x1="5.0" y1="176.4" x2="305.0" y2="176.4"/>
      <line id="line-22" x1="5.0" y1="155.0" x2="305.0" y2="155.0"/>
      <line id="line-23" x1="5.0" y1="133.6" x2="305.0" y2="133.6"/>
      <line id="line-24" x1="5.0" y1="112.1" x2="305.0" y2="112.1"/>
      <line id="line-25" x1="5.0" y1="90.7" x2="305.0" y2="90.7"/>
      <line id="line-26" x1="5.0" y1="69.3" x2="305.0" y2="69.3"/>
      <line id="line-27" x1="5.0" y1="47.9" x2="305.0" y2="47.9"/>
      <line id="line-28" x1="5.0" y1="26.4" x2="305.0" y2="26.4"/>
      <line id="line-29" x1="5.0" y1="5.0" x2="305.0" y2="5.0"/>
    </g>
    <g id="axes" stroke="black" stroke-width="2">
      <line id="line-30" x1="5.0" y1="262.1" x2="305.0" y2="262.1" stroke="black" stroke-width="2"/>
      <g id="g-0">
        <line id="line-31" x1="5.0" y1="265.1" x2="5.0" y2="259.1"/>
        <line id="line-32" x1="90.7" y1="265.1" x2="90.7" y2="259.1"/>
        <line id="line-33" x1="133.6" y1="265.1" x2="133.6" y2="259.1"/>
        <line id="line-34" x1="176.4" y1="265.1" x2="176.4" y2="259.1"/>
        <line id="line-35" x1="219.3" y1="265.1" x2="219.3" y2="259.1"/>
        <line id="line-36" x1="262.1" y1="265.1" x2="262.1" y2="259.1"/>
        <line id="line-37" x1="90.7" y1="265.1" x2="90.7" y2="259.1"/>
        <line id="line-38" x1="176.4" y1="265.1" x2="176.4" y2="259.1"/>
        <line id="line-39" x1="262.1" y1="265.1" x2="262.1" y2="259.1"/>
      </g>
      <line id="line-40" x1="47.9" y1="305.0" x2="47.9" y2="5.0" stroke="black" stroke-width="2"/>
      <g id="g-1">
        <line id="line-41" x1="44.9" y1="305.0" x2="50.9" y2="305.0"/>
        <line id="line-42" x1="44.9" y1="219.3" x2="50.9" y2="219.3"/>
        <line id="line-43" x1="44.9" y1="176.4" x2="50.9" y2="176.4"/>
        <line id="line-44" x1="44.9" y1="133.6" x2="50.9" y2="133.6"/>
        <line id="line-45" x1="44.9" y1="90.7" x2="50.9" y2="90.7"/>
        <line id="line-46" x1="44.9" y1="47.9" x2="50.9" y2="47.9"/>
        <line id="line-47" x1="44.9" y1="219.3" x2="50.9" y2="219.3"/>
        <line id="line-48" x1="44.9" y1="133.6" x2="50.9" y2="133.6"/>
        <line id="line-49" x1="44.9" y1="47.9" x2="50.9" y2="47.9"/>
      </g>
    </g>
    <g id="label-0" transform="translate(301.0,258.1) translate(-6.5,-11.5)">
      <g id="g-2">
        <svg xmlns:xlink="http://www.w3.org/1999/xlink" style="vertical-align: -0.200px" width="6.536px" height="11.528px" role="img" focusable="false" viewBox="0 -626 361 637" x="0.0" y="0.0">
          <defs>
            <path id="MJX-2-TEX-I-1D461" d="M26 385Q19 392 19 395Q19 399 22 411T27 425Q29 430 36 430T87 431H140L159 511Q162 522 166 540T173 566T179 586T187 603T197 615T211 624T229 626Q247 625 254 615T261 596Q261 589 252 549T232 470L222 433Q222 431 272 431H323Q330 424 330 420Q330 398 317 385H210L174 240Q135 80 135 68Q135 26 162 26Q197 26 230 60T283 144Q285 150 288 151T303 153H307Q322 153 322 145Q322 142 319 133Q314 117 301 95T267 48T216 6T155 -11Q125 -11 98 4T59 56Q57 64 57 83V101L92 241Q127 382 128 383Q128 385 77 385H26Z"/>
          </defs>
          <g stroke="currentColor" fill="currentColor" stroke-width="0" transform="scale(1,-1)">
            <g data-mml-node="math">
              <g data-mml-node="mi" data-semantic-type="identifier" data-semantic-role="latinletter" data-semantic-font="italic" data-semantic-annotation="clearspeak:simple" data-semantic-id="0" data-semantic-speech="t">
                <use data-c="1D461" xlink:href="#MJX-2-TEX-I-1D461"/>
              </g>
            </g>
          </g>
        </svg>
      </g>
    </g>
    <g id="label-1" transform="translate(51.9,9.0) translate(0.0,-0.0)">
      <g id="g-3">
        <svg xmlns:xlink="http://www.w3.org/1999/xlink" style="vertical-align: -4.528px" width="102.408px" height="18.096px" role="img" focusable="false" viewBox="0 -750 5658 1000" x="0.0" y="0.0">
          <defs>
            <path id="MJX-3-TEX-I-1D449" d="M52 648Q52 670 65 683H76Q118 680 181 680Q299 680 320 683H330Q336 677 336 674T334 656Q329 641 325 637H304Q282 635 274 635Q245 630 242 620Q242 618 271 369T301 118L374 235Q447 352 520 471T595 594Q599 601 599 609Q599 633 555 637Q537 637 537 648Q537 649 539 661Q542 675 545 679T558 683Q560 683 570 683T604 682T668 681Q737 681 755 683H762Q769 676 769 672Q769 655 760 640Q757 637 743 637Q730 636 719 635T698 630T682 623T670 615T660 608T652 599T645 592L452 282Q272 -9 266 -16Q263 -18 259 -21L241 -22H234Q216 -22 216 -15Q213 -9 177 305Q139 623 138 626Q133 637 76 637H59Q52 642 52 648Z"/>
            <path id="MJX-3-TEX-N-28" d="M94 250Q94 319 104 381T127 488T164 576T202 643T244 695T277 729T302 750H315H319Q333 750 333 741Q333 738 316 720T275 667T226 581T184 443T167 250T184 58T225 -81T274 -167T316 -220T333 -241Q333 -250 318 -250H315H302L274 -226Q180 -141 137 -14T94 250Z"/>
            <path id="MJX-3-TEX-N-63" d="M370 305T349 305T313 320T297 358Q297 381 312 396Q317 401 317 402T307 404Q281 408 258 408Q209 408 178 376Q131 329 131 219Q131 137 162 90Q203 29 272 29Q313 29 338 55T374 117Q376 125 379 127T395 129H409Q415 123 415 120Q415 116 411 104T395 71T366 33T318 2T249 -11Q163 -11 99 53T34 214Q34 318 99 383T250 448T370 421T404 357Q404 334 387 320Z"/>
            <path id="MJX-3-TEX-N-75" d="M383 58Q327 -10 256 -10H249Q124 -10 105 89Q104 96 103 226Q102 335 102 348T96 369Q86 385 36 385H25V408Q25 431 27 431L38 432Q48 433 67 434T105 436Q122 437 142 438T172 441T184 442H187V261Q188 77 190 64Q193 49 204 40Q224 26 264 26Q290 26 311 35T343 58T363 90T375 120T379 144Q379 145 379 161T380 201T380 248V315Q380 361 370 372T320 385H302V431Q304 431 378 436T457 442H464V264Q464 84 465 81Q468 61 479 55T524 46H542V0Q540 0 467 -5T390 -11H383V58Z"/>
            <path id="MJX-3-TEX-N-62" d="M307 -11Q234 -11 168 55L158 37Q156 34 153 28T147 17T143 10L138 1L118 0H98V298Q98 599 97 603Q94 622 83 628T38 637H20V660Q20 683 22 683L32 684Q42 685 61 686T98 688Q115 689 135 690T165 693T176 694H179V543Q179 391 180 391L183 394Q186 397 192 401T207 411T228 421T254 431T286 439T323 442Q401 442 461 379T522 216Q522 115 458 52T307 -11ZM182 98Q182 97 187 90T196 79T206 67T218 55T233 44T250 35T271 29T295 26Q330 26 363 46T412 113Q424 148 424 212Q424 287 412 323Q385 405 300 405Q270 405 239 390T188 347L182 339V98Z"/>
            <path id="MJX-3-TEX-N-69" d="M69 609Q69 637 87 653T131 669Q154 667 171 652T188 609Q188 579 171 564T129 549Q104 549 87 564T69 609ZM247 0Q232 3 143 3Q132 3 106 3T56 1L34 0H26V46H42Q70 46 91 49Q100 53 102 60T104 102V205V293Q104 345 102 359T88 378Q74 385 41 385H30V408Q30 431 32 431L42 432Q52 433 70 434T106 436Q123 437 142 438T171 441T182 442H185V62Q190 52 197 50T232 46H255V0H247Z"/>
            <path id="MJX-3-TEX-N-20" d=""/>
            <path id="MJX-3-TEX-N-66" d="M273 0Q255 3 146 3Q43 3 34 0H26V46H42Q70 46 91 49Q99 52 103 60Q104 62 104 224V385H33V431H104V497L105 564L107 574Q126 639 171 668T266 704Q267 704 275 704T289 705Q330 702 351 679T372 627Q372 604 358 590T321 576T284 590T270 627Q270 647 288 667H284Q280 668 273 668Q245 668 223 647T189 592Q183 572 182 497V431H293V385H185V225Q185 63 186 61T189 57T194 54T199 51T206 49T213 48T222 47T231 47T241 46T251 46H282V0H273Z"/>
            <path id="MJX-3-TEX-N-65" d="M28 218Q28 273 48 318T98 391T163 433T229 448Q282 448 320 430T378 380T406 316T415 245Q415 238 408 231H126V216Q126 68 226 36Q246 30 270 30Q312 30 342 62Q359 79 369 104L379 128Q382 131 395 131H398Q415 131 415 121Q415 117 412 108Q393 53 349 21T250 -11Q155 -11 92 58T28 218ZM333 275Q322 403 238 411H236Q228 411 220 410T195 402T166 381T143 340T127 274V267H333V275Z"/>
            <path id="MJX-3-TEX-N-74" d="M27 422Q80 426 109 478T141 600V615H181V431H316V385H181V241Q182 116 182 100T189 68Q203 29 238 29Q282 29 292 100Q293 108 293 146V181H333V146V134Q333 57 291 17Q264 -10 221 -10Q187 -10 162 2T124 33T105 68T98 100Q97 107 97 248V385H18V422H27Z"/>
            <path id="MJX-3-TEX-N-29" d="M60 749L64 750Q69 750 74 750H86L114 726Q208 641 251 514T294 250Q294 182 284 119T261 12T224 -76T186 -143T145 -194T113 -227T90 -246Q87 -249 86 -250H74Q66 -250 63 -250T58 -247T55 -238Q56 -237 66 -225Q221 -64 221 250T66 725Q56 737 55 738Q55 746 60 749Z"/>
          </defs>
          <g stroke="currentColor" fill="currentColor" stroke-width="0" transform="scale(1,-1)">
            <g data-mml-node="math" data-semantic-type="punctuated" data-semantic-role="text" data-semantic-id="3" data-semantic-children="0,1" data-semantic-collapsed="(3 (c 2) 0 1)" data-semantic-speech="upper V left parenthesis cubic feet right parenthesis">
              <g data-mml-node="mi" data-semantic-type="identifier" data-semantic-role="latinletter" data-semantic-font="italic" data-semantic-annotation="clearspeak:simple" data-semantic-id="0" data-semantic-parent="3" data-semantic-speech="upper V">
                <use data-c="1D449" xlink:href="#MJX-3-TEX-I-1D449"/>
              </g>
              <g data-mml-node="mtext" data-semantic-type="text" data-semantic-role="unknown" data-semantic-font="normal" data-semantic-annotation="clearspeak:unit" data-semantic-id="1" data-semantic-parent="3" data-semantic-speech="left parenthesis cubic feet right parenthesis" transform="translate(769,0)">
                <use data-c="28" xlink:href="#MJX-3-TEX-N-28"/>
                <use data-c="63" xlink:href="#MJX-3-TEX-N-63" transform="translate(389,0)"/>
                <use data-c="75" xlink:href="#MJX-3-TEX-N-75" transform="translate(833,0)"/>
                <use data-c="62" xlink:href="#MJX-3-TEX-N-62" transform="translate(1389,0)"/>
                <use data-c="69" xlink:href="#MJX-3-TEX-N-69" transform="translate(1945,0)"/>
                <use data-c="63" xlink:href="#MJX-3-TEX-N-63" transform="translate(2223,0)"/>
                <use data-c="20" xlink:href="#MJX-3-TEX-N-20" transform="translate(2667,0)"/>
                <use data-c="66" xlink:href="#MJX-3-TEX-N-66" transform="translate(2917,0)"/>
                <use data-c="65" xlink:href="#MJX-3-TEX-N-65" transform="translate(3223,0)"/>
                <use data-c="65" xlink:href="#MJX-3-TEX-N-65" transform="translate(3667,0)"/>
                <use data-c="74" xlink:href="#MJX-3-TEX-N-74" transform="translate(4111,0)"/>
                <use data-c="29" xlink:href="#MJX-3-TEX-N-29" transform="translate(4500,0)"/>
              </g>
            </g>
          </g>
        </svg>
      </g>
    </g>
    <g id="label-2" transform="translate(90.7,273.1) translate(-9.0,-0.0)">
      <g id="g-4">
        <svg xmlns:xlink="http://www.w3.org/1999/xlink" style="vertical-align: -0.400px" width="18.096px" height="12.456px" role="img" focusable="false" viewBox="0 -666 1000 688" x="0.0" y="0.0">
          <defs>
            <path id="MJX-4-TEX-N-32" d="M109 429Q82 429 66 447T50 491Q50 562 103 614T235 666Q326 666 387 610T449 465Q449 422 429 383T381 315T301 241Q265 210 201 149L142 93L218 92Q375 92 385 97Q392 99 409 186V189H449V186Q448 183 436 95T421 3V0H50V19V31Q50 38 56 46T86 81Q115 113 136 137Q145 147 170 174T204 211T233 244T261 278T284 308T305 340T320 369T333 401T340 431T343 464Q343 527 309 573T212 619Q179 619 154 602T119 569T109 550Q109 549 114 549Q132 549 151 535T170 489Q170 464 154 447T109 429Z"/>
            <path id="MJX-4-TEX-N-30" d="M96 585Q152 666 249 666Q297 666 345 640T423 548Q460 465 460 320Q460 165 417 83Q397 41 362 16T301 -15T250 -22Q224 -22 198 -16T137 16T82 83Q39 165 39 320Q39 494 96 585ZM321 597Q291 629 250 629Q208 629 178 597Q153 571 145 525T137 333Q137 175 145 125T181 46Q209 16 250 16Q290 16 318 46Q347 76 354 130T362 333Q362 478 354 524T321 597Z"/>
          </defs>
          <g stroke="currentColor" fill="currentColor" stroke-width="0" transform="scale(1,-1)">
            <g data-mml-node="math">
              <g data-mml-node="mtext" data-semantic-type="text" data-semantic-role="unknown" data-semantic-font="normal" data-semantic-annotation="clearspeak:unit" data-semantic-id="0" data-semantic-speech="20">
                <use data-c="32" xlink:href="#MJX-4-TEX-N-32"/>
                <use data-c="30" xlink:href="#MJX-4-TEX-N-30" transform="translate(500,0)"/>
              </g>
            </g>
          </g>
        </svg>
      </g>
    </g>
    <g id="label-3" transform="translate(176.4,273.1) translate(-9.0,-0.0)">
      <g id="g-5">
        <svg xmlns:xlink="http://www.w3.org/1999/xlink" style="vertical-align: -0.400px" width="18.096px" height="12.456px" role="img" focusable="false" viewBox="0 -666 1000 688" x="0.0" y="0.0">
          <defs>
            <path id="MJX-5-TEX-N-36" d="M42 313Q42 476 123 571T303 666Q372 666 402 630T432 550Q432 525 418 510T379 495Q356 495 341 509T326 548Q326 592 373 601Q351 623 311 626Q240 626 194 566Q147 500 147 364L148 360Q153 366 156 373Q197 433 263 433H267Q313 433 348 414Q372 400 396 374T435 317Q456 268 456 210V192Q456 169 451 149Q440 90 387 34T253 -22Q225 -22 199 -14T143 16T92 75T56 172T42 313ZM257 397Q227 397 205 380T171 335T154 278T148 216Q148 133 160 97T198 39Q222 21 251 21Q302 21 329 59Q342 77 347 104T352 209Q352 289 347 316T329 361Q302 397 257 397Z"/>
            <path id="MJX-5-TEX-N-30" d="M96 585Q152 666 249 666Q297 666 345 640T423 548Q460 465 460 320Q460 165 417 83Q397 41 362 16T301 -15T250 -22Q224 -22 198 -16T137 16T82 83Q39 165 39 320Q39 494 96 585ZM321 597Q291 629 250 629Q208 629 178 597Q153 571 145 525T137 333Q137 175 145 125T181 46Q209 16 250 16Q290 16 318 46Q347 76 354 130T362 333Q362 478 354 524T321 597Z"/>
          </defs>
          <g stroke="currentColor" fill="currentColor" stroke-width="0" transform="scale(1,-1)">
            <g data-mml-node="math">
              <g data-mml-node="mtext" data-semantic-type="text" data-semantic-role="unknown" data-semantic-font="normal" data-semantic-annotation="clearspeak:unit" data-semantic-id="0" data-semantic-speech="60">
                <use data-c="36" xlink:href="#MJX-5-TEX-N-36"/>
                <use data-c="30" xlink:href="#MJX-5-TEX-N-30" transform="translate(500,0)"/>
              </g>
            </g>
          </g>
        </svg>
      </g>
    </g>
    <g id="label-4" transform="translate(262.1,273.1) translate(-13.6,-0.0)">
      <g id="g-6">
        <svg xmlns:xlink="http://www.w3.org/1999/xlink" style="vertical-align: -0.400px" width="27.152px" height="12.456px" role="img" focusable="false" viewBox="0 -666 1500 688" x="0.0" y="0.0">
          <defs>
            <path id="MJX-6-TEX-N-31" d="M213 578L200 573Q186 568 160 563T102 556H83V602H102Q149 604 189 617T245 641T273 663Q275 666 285 666Q294 666 302 660V361L303 61Q310 54 315 52T339 48T401 46H427V0H416Q395 3 257 3Q121 3 100 0H88V46H114Q136 46 152 46T177 47T193 50T201 52T207 57T213 61V578Z"/>
            <path id="MJX-6-TEX-N-30" d="M96 585Q152 666 249 666Q297 666 345 640T423 548Q460 465 460 320Q460 165 417 83Q397 41 362 16T301 -15T250 -22Q224 -22 198 -16T137 16T82 83Q39 165 39 320Q39 494 96 585ZM321 597Q291 629 250 629Q208 629 178 597Q153 571 145 525T137 333Q137 175 145 125T181 46Q209 16 250 16Q290 16 318 46Q347 76 354 130T362 333Q362 478 354 524T321 597Z"/>
          </defs>
          <g stroke="currentColor" fill="currentColor" stroke-width="0" transform="scale(1,-1)">
            <g data-mml-node="math">
              <g data-mml-node="mtext" data-semantic-type="text" data-semantic-role="unknown" data-semantic-font="normal" data-semantic-annotation="clearspeak:unit" data-semantic-id="0" data-semantic-speech="100">
                <use data-c="31" xlink:href="#MJX-6-TEX-N-31"/>
                <use data-c="30" xlink:href="#MJX-6-TEX-N-30" transform="translate(500,0)"/>
                <use data-c="30" xlink:href="#MJX-6-TEX-N-30" transform="translate(1000,0)"/>
              </g>
            </g>
          </g>
        </svg>
      </g>
    </g>
    <g id="label-5" transform="translate(36.9,219.3) translate(-18.1,-6.2)">
      <g id="g-7">
        <svg xmlns:xlink="http://www.w3.org/1999/xlink" style="vertical-align: -0.400px" width="18.096px" height="12.456px" role="img" focusable="false" viewBox="0 -666 1000 688" x="0.0" y="0.0">
          <defs>
            <path id="MJX-7-TEX-N-32" d="M109 429Q82 429 66 447T50 491Q50 562 103 614T235 666Q326 666 387 610T449 465Q449 422 429 383T381 315T301 241Q265 210 201 149L142 93L218 92Q375 92 385 97Q392 99 409 186V189H449V186Q448 183 436 95T421 3V0H50V19V31Q50 38 56 46T86 81Q115 113 136 137Q145 147 170 174T204 211T233 244T261 278T284 308T305 340T320 369T333 401T340 431T343 464Q343 527 309 573T212 619Q179 619 154 602T119 569T109 550Q109 549 114 549Q132 549 151 535T170 489Q170 464 154 447T109 429Z"/>
            <path id="MJX-7-TEX-N-30" d="M96 585Q152 666 249 666Q297 666 345 640T423 548Q460 465 460 320Q460 165 417 83Q397 41 362 16T301 -15T250 -22Q224 -22 198 -16T137 16T82 83Q39 165 39 320Q39 494 96 585ZM321 597Q291 629 250 629Q208 629 178 597Q153 571 145 525T137 333Q137 175 145 125T181 46Q209 16 250 16Q290 16 318 46Q347 76 354 130T362 333Q362 478 354 524T321 597Z"/>
          </defs>
          <g stroke="currentColor" fill="currentColor" stroke-width="0" transform="scale(1,-1)">
            <g data-mml-node="math">
              <g data-mml-node="mtext" data-semantic-type="text" data-semantic-role="unknown" data-semantic-font="normal" data-semantic-annotation="clearspeak:unit" data-semantic-id="0" data-semantic-speech="20">
                <use data-c="32" xlink:href="#MJX-7-TEX-N-32"/>
                <use data-c="30" xlink:href="#MJX-7-TEX-N-30" transform="translate(500,0)"/>
              </g>
            </g>
          </g>
        </svg>
      </g>
    </g>
    <g id="label-6" transform="translate(36.9,133.6) translate(-18.1,-6.2)">
      <g id="g-8">
        <svg xmlns:xlink="http://www.w3.org/1999/xlink" style="vertical-align: -0.400px" width="18.096px" height="12.456px" role="img" focusable="false" viewBox="0 -666 1000 688" x="0.0" y="0.0">
          <defs>
            <path id="MJX-8-TEX-N-36" d="M42 313Q42 476 123 571T303 666Q372 666 402 630T432 550Q432 525 418 510T379 495Q356 495 341 509T326 548Q326 592 373 601Q351 623 311 626Q240 626 194 566Q147 500 147 364L148 360Q153 366 156 373Q197 433 263 433H267Q313 433 348 414Q372 400 396 374T435 317Q456 268 456 210V192Q456 169 451 149Q440 90 387 34T253 -22Q225 -22 199 -14T143 16T92 75T56 172T42 313ZM257 397Q227 397 205 380T171 335T154 278T148 216Q148 133 160 97T198 39Q222 21 251 21Q302 21 329 59Q342 77 347 104T352 209Q352 289 347 316T329 361Q302 397 257 397Z"/>
            <path id="MJX-8-TEX-N-30" d="M96 585Q152 666 249 666Q297 666 345 640T423 548Q460 465 460 320Q460 165 417 83Q397 41 362 16T301 -15T250 -22Q224 -22 198 -16T137 16T82 83Q39 165 39 320Q39 494 96 585ZM321 597Q291 629 250 629Q208 629 178 597Q153 571 145 525T137 333Q137 175 145 125T181 46Q209 16 250 16Q290 16 318 46Q347 76 354 130T362 333Q362 478 354 524T321 597Z"/>
          </defs>
          <g stroke="currentColor" fill="currentColor" stroke-width="0" transform="scale(1,-1)">
            <g data-mml-node="math">
              <g data-mml-node="mtext" data-semantic-type="text" data-semantic-role="unknown" data-semantic-font="normal" data-semantic-annotation="clearspeak:unit" data-semantic-id="0" data-semantic-speech="60">
                <use data-c="36" xlink:href="#MJX-8-TEX-N-36"/>
                <use data-c="30" xlink:href="#MJX-8-TEX-N-30" transform="translate(500,0)"/>
              </g>
            </g>
          </g>
        </svg>
      </g>
    </g>
    <g id="label-7" transform="translate(36.9,47.9) translate(-27.2,-6.2)">
      <g id="g-9">
        <svg xmlns:xlink="http://www.w3.org/1999/xlink" style="vertical-align: -0.400px" width="27.152px" height="12.456px" role="img" focusable="false" viewBox="0 -666 1500 688" x="0.0" y="0.0">
          <defs>
            <path id="MJX-9-TEX-N-31" d="M213 578L200 573Q186 568 160 563T102 556H83V602H102Q149 604 189 617T245 641T273 663Q275 666 285 666Q294 666 302 660V361L303 61Q310 54 315 52T339 48T401 46H427V0H416Q395 3 257 3Q121 3 100 0H88V46H114Q136 46 152 46T177 47T193 50T201 52T207 57T213 61V578Z"/>
            <path id="MJX-9-TEX-N-30" d="M96 585Q152 666 249 666Q297 666 345 640T423 548Q460 465 460 320Q460 165 417 83Q397 41 362 16T301 -15T250 -22Q224 -22 198 -16T137 16T82 83Q39 165 39 320Q39 494 96 585ZM321 597Q291 629 250 629Q208 629 178 597Q153 571 145 525T137 333Q137 175 145 125T181 46Q209 16 250 16Q290 16 318 46Q347 76 354 130T362 333Q362 478 354 524T321 597Z"/>
          </defs>
          <g stroke="currentColor" fill="currentColor" stroke-width="0" transform="scale(1,-1)">
            <g data-mml-node="math">
              <g data-mml-node="mtext" data-semantic-type="text" data-semantic-role="unknown" data-semantic-font="normal" data-semantic-annotation="clearspeak:unit" data-semantic-id="0" data-semantic-speech="100">
                <use data-c="31" xlink:href="#MJX-9-TEX-N-31"/>
                <use data-c="30" xlink:href="#MJX-9-TEX-N-30" transform="translate(500,0)"/>
                <use data-c="30" xlink:href="#MJX-9-TEX-N-30" transform="translate(1000,0)"/>
              </g>
            </g>
          </g>
        </svg>
      </g>
    </g>
  </g>
  <path id="graph" stroke="blue" stroke-width="2" fill="none" d="M 5.0 -31.6 L 8.0 -28.0 L 11.0 -24.4 L 14.0 -20.8 L 17.0 -17.2 L 20.0 -13.6 L 23.0 -10.0 L 26.0 -6.4 L 29.0 -2.8 L 32.0 0.8 L 35.0 4.4 L 38.0 8.0 L 41.0 11.6 L 44.0 15.2 L 47.0 18.8 L 50.0 22.4 L 53.0 26.0 L 56.0 29.6 L 59.0 33.2 L 62.0 36.8 L 65.0 40.4 L 68.0 44.0 L 71.0 47.6 L 74.0 51.2 L 77.0 54.8 L 80.0 58.4 L 83.0 62.0 L 86.0 65.6 L 89.0 69.2 L 92.0 72.8 L 95.0 76.4 L 98.0 80.0 L 101.0 83.6 L 104.0 87.2 L 107.0 90.8 L 110.0 94.4 L 113.0 98.0 L 116.0 101.6 L 119.0 105.2 L 122.0 108.8 L 125.0 112.4 L 128.0 116.0 L 131.0 119.6 L 134.0 123.2 L 137.0 126.8 L 140.0 130.4 L 143.0 134.0 L 146.0 137.6 L 149.0 141.2 L 152.0 144.8 L 155.0 148.4 L 158.0 152.0 L 161.0 155.6 L 164.0 159.2 L 167.0 162.8 L 170.0 166.4 L 173.0 170.0 L 176.0 173.6 L 179.0 177.2 L 182.0 180.8 L 185.0 184.4 L 188.0 188.0 L 191.0 191.6 L 194.0 195.2 L 197.0 198.8 L 200.0 202.4 L 203.0 206.0 L 206.0 209.6 L 209.0 213.2 L 212.0 216.8 L 215.0 220.4 L 218.0 224.0 L 221.0 227.6 L 224.0 231.2 L 227.0 234.8 L 230.0 238.4 L 233.0 242.0 L 236.0 245.6 L 239.0 249.2 L 242.0 252.8 L 245.0 256.4 L 248.0 260.0 L 251.0 263.6 L 254.0 267.2 L 257.0 270.8 L 260.0 274.4 L 263.0 278.0 L 266.0 281.6 L 269.0 285.2 L 272.0 288.8 L 275.0 292.4 L 278.0 296.0 L 281.0 299.6 L 284.0 303.2 L 287.0 306.8 L 290.0 310.4 L 293.0 314.0 L 296.0 317.6 L 299.0 321.2 L 302.0 324.8 L 305.0 328.4" clip-path="url(#clipPath-1)"/>
</svg>
