<svg xmlns="http://www.w3.org/2000/svg" id="diagram" width="310" height="310">
  <defs>
    <clipPath id="clipPath-0">
      <rect x="5.0" y="5.0" width="300.0" height="300.0"/>
    </clipPath>
    <clipPath id="clipPath-1">
      <rect x="5.0" y="5.0" width="300.0" height="300.0"/>
    </clipPath>
  </defs>
  <g id="grid-axes">
    <g id="grid" stroke="#ccc" stroke-width="1">
      <line id="line-0" x1="5.0" y1="305.0" x2="5.0" y2="5.0"/>
      <line id="line-1" x1="20.0" y1="305.0" x2="20.0" y2="5.0"/>
      <line id="line-2" x1="35.0" y1="305.0" x2="35.0" y2="5.0"/>
      <line id="line-3" x1="50.0" y1="305.0" x2="50.0" y2="5.0"/>
      <line id="line-4" x1="65.0" y1="305.0" x2="65.0" y2="5.0"/>
      <line id="line-5" x1="80.0" y1="305.0" x2="80.0" y2="5.0"/>
      <line id="line-6" x1="95.0" y1="305.0" x2="95.0" y2="5.0"/>
      <line id="line-7" x1="110.0" y1="305.0" x2="110.0" y2="5.0"/>
      <line id="line-8" x1="125.0" y1="305.0" x2="125.0" y2="5.0"/>
      <line id="line-9" x1="140.0" y1="305.0" x2="140.0" y2="5.0"/>
      <line id="line-10" x1="155.0" y1="305.0" x2="155.0" y2="5.0"/>
      <line id="line-11" x1="170.0" y1="305.0" x2="170.0" y2="5.0"/>
      <line id="line-12" x1="185.0" y1="305.0" x2="185.0" y2="5.0"/>
      <line id="line-13" x1="200.0" y1="305.0" x2="200.0" y2="5.0"/>
      <line id="line-14" x1="215.0" y1="305.0" x2="215.0" y2="5.0"/>
      <line id="line-15" x1="230.0" y1="305.0" x2="230.0" y2="5.0"/>
      <line id="line-16" x1="245.0" y1="305.0" x2="245.0" y2="5.0"/>
      <line id="line-17" x1="260.0" y1="305.0" x2="260.0" y2="5.0"/>
      <line id="line-18" x1="275.0" y1="305.0" x2="275.0" y2="5.0"/>
      <line id="line-19" x1="290.0" y1="305.0" x2="290.0" y2="5.0"/>
      <line id="line-20" x1="305.0" y1="305.0" x2="305.0" y2="5.0"/>
      <line id="line-21" x1="5.0" y1="305.0" x2="305.0" y2="305.0"/>
      <line id="line-22" x1="5.0" y1="290.0" x2="305.0" y2="290.0"/>
      <line id="line-23" x1="5.0" y1="275.0" x2="305.0" y2="275.0"/>
      <line id="line-24" x1="5.0" y1="260.0" x2="305.0" y2="260.0"/>
      <line id="line-25" x1="5.0" y1="245.0" x2="305.0" y2="245.0"/>
      <line id="line-26" x1="5.0" y1="230.0" x2="305.0" y2="230.0"/>
      <line id="line-27" x1="5.0" y1="215.0" x2="305.0" y2="215.0"/>
      <line id="line-28" x1="5.0" y1="200.0" x2="305.0" y2="200.0"/>
      <line id="line-29" x1="5.0" y1="185.0" x2="305.0" y2="185.0"/>
      <line id="line-30" x1="5.0" y1="170.0" x2="305.0" y2="170.0"/>
      <line id="line-31" x1="5.0" y1="155.0" x2="305.0" y2="155.0"/>
      <line id="line-32" x1="5.0" y1="140.0" x2="305.0" y2="140.0"/>
      <line id="line-33" x1="5.0" y1="125.0" x2="305.0" y2="125.0"/>
      <line id="line-34" x1="5.0" y1="110.0" x2="305.0" y2="110.0"/>
      <line id="line-35" x1="5.0" y1="95.0" x2="305.0" y2="95.0"/>
      <line id="line-36" x1="5.0" y1="80.0" x2="305.0" y2="80.0"/>
      <line id="line-37" x1="5.0" y1="65.0" x2="305.0" y2="65.0"/>
      <line id="line-38" x1="5.0" y1="50.0" x2="305.0" y2="50.0"/>
      <line id="line-39" x1="5.0" y1="35.0" x2="305.0" y2="35.0"/>
      <line id="line-40" x1="5.0" y1="20.0" x2="305.0" y2="20.0"/>
      <line id="line-41" x1="5.0" y1="5.0" x2="305.0" y2="5.0"/>
    </g>
    <g id="axes" stroke="black" stroke-width="2">
      <line id="line-42" x1="5.0" y1="155.0" x2="305.0" y2="155.0" stroke="black" stroke-width="2"/>
      <g>
        <line id="line-43" x1="35.0" y1="158.0" x2="35.0" y2="152.0"/>
        <line id="line-44" x1="95.0" y1="158.0" x2="95.0" y2="152.0"/>
        <line id="line-45" x1="215.0" y1="158.0" x2="215.0" y2="152.0"/>
        <line id="line-46" x1="275.0" y1="158.0" x2="275.0" y2="152.0"/>
      </g>
      <line id="line-47" x1="155.0" y1="305.0" x2="155.0" y2="5.0" stroke="black" stroke-width="2"/>
      <g>
        <line id="line-48" x1="152.0" y1="275.0" x2="158.0" y2="275.0"/>
        <line id="line-49" x1="152.0" y1="215.0" x2="158.0" y2="215.0"/>
        <line id="line-50" x1="152.0" y1="95.0" x2="158.0" y2="95.0"/>
        <line id="line-51" x1="152.0" y1="35.0" x2="158.0" y2="35.0"/>
      </g>
    </g>
    <g id="label-0" transform="translate(301.0,151.0) translate(-10.4,-8.2)">
      <g id="g-1">
        <svg xmlns:xlink="http://www.w3.org/1999/xlink" style="vertical-align: -0.200px" width="10.352px" height="8.200px" role="img" focusable="false" viewBox="0 -442 572 453" x="0.0" y="0.0">
          <defs>
            <path id="MJX-2-TEX-I-1D465" d="M52 289Q59 331 106 386T222 442Q257 442 286 424T329 379Q371 442 430 442Q467 442 494 420T522 361Q522 332 508 314T481 292T458 288Q439 288 427 299T415 328Q415 374 465 391Q454 404 425 404Q412 404 406 402Q368 386 350 336Q290 115 290 78Q290 50 306 38T341 26Q378 26 414 59T463 140Q466 150 469 151T485 153H489Q504 153 504 145Q504 144 502 134Q486 77 440 33T333 -11Q263 -11 227 52Q186 -10 133 -10H127Q78 -10 57 16T35 71Q35 103 54 123T99 143Q142 143 142 101Q142 81 130 66T107 46T94 41L91 40Q91 39 97 36T113 29T132 26Q168 26 194 71Q203 87 217 139T245 247T261 313Q266 340 266 352Q266 380 251 392T217 404Q177 404 142 372T93 290Q91 281 88 280T72 278H58Q52 284 52 289Z"/>
          </defs>
          <g stroke="currentColor" fill="currentColor" stroke-width="0" transform="scale(1,-1)">
            <g data-mml-node="math">
              <g data-mml-node="mi" data-semantic-type="identifier" data-semantic-role="latinletter" data-semantic-font="italic" data-semantic-annotation="clearspeak:simple" data-semantic-id="0" data-semantic-speech="x">
                <use data-c="1D465" xlink:href="#MJX-2-TEX-I-1D465"/>
              </g>
            </g>
          </g>
        </svg>
      </g>
    </g>
    <g id="label-1" transform="translate(159.0,9.0) translate(0.0,-0.0)">
      <g id="g-2">
        <svg xmlns:xlink="http://www.w3.org/1999/xlink" style="vertical-align: -3.712px" width="8.872px" height="11.712px" role="img" focusable="false" viewBox="0 -442 490 647" x="0.0" y="0.0">
          <defs>
            <path id="MJX-3-TEX-I-1D466" d="M21 287Q21 301 36 335T84 406T158 442Q199 442 224 419T250 355Q248 336 247 334Q247 331 231 288T198 191T182 105Q182 62 196 45T238 27Q261 27 281 38T312 61T339 94Q339 95 344 114T358 173T377 247Q415 397 419 404Q432 431 462 431Q475 431 483 424T494 412T496 403Q496 390 447 193T391 -23Q363 -106 294 -155T156 -205Q111 -205 77 -183T43 -117Q43 -95 50 -80T69 -58T89 -48T106 -45Q150 -45 150 -87Q150 -107 138 -122T115 -142T102 -147L99 -148Q101 -153 118 -160T152 -167H160Q177 -167 186 -165Q219 -156 247 -127T290 -65T313 -9T321 21L315 17Q309 13 296 6T270 -6Q250 -11 231 -11Q185 -11 150 11T104 82Q103 89 103 113Q103 170 138 262T173 379Q173 380 173 381Q173 390 173 393T169 400T158 404H154Q131 404 112 385T82 344T65 302T57 280Q55 278 41 278H27Q21 284 21 287Z"/>
          </defs>
          <g stroke="currentColor" fill="currentColor" stroke-width="0" transform="scale(1,-1)">
            <g data-mml-node="math">
              <g data-mml-node="mi" data-semantic-type="identifier" data-semantic-role="latinletter" data-semantic-font="italic" data-semantic-annotation="clearspeak:simple" data-semantic-id="0" data-semantic-speech="y">
                <use data-c="1D466" xlink:href="#MJX-3-TEX-I-1D466"/>
              </g>
            </g>
          </g>
        </svg>
      </g>
    </g>
    <g id="label-2" transform="translate(35.0,166.0) translate(-7.5,-0.0)">
      <g id="g-3">
        <svg xmlns:xlink="http://www.w3.org/1999/xlink" style="vertical-align: 0.000px" width="15.080px" height="12.256px" role="img" focusable="false" viewBox="0 -677 833 677" x="0.0" y="0.0">
          <defs>
            <path id="MJX-4-TEX-N-2D" d="M11 179V252H277V179H11Z"/>
            <path id="MJX-4-TEX-N-34" d="M462 0Q444 3 333 3Q217 3 199 0H190V46H221Q241 46 248 46T265 48T279 53T286 61Q287 63 287 115V165H28V211L179 442Q332 674 334 675Q336 677 355 677H373L379 671V211H471V165H379V114Q379 73 379 66T385 54Q393 47 442 46H471V0H462ZM293 211V545L74 212L183 211H293Z"/>
          </defs>
          <g stroke="currentColor" fill="currentColor" stroke-width="0" transform="scale(1,-1)">
            <g data-mml-node="math">
              <g data-mml-node="mtext" data-semantic-type="text" data-semantic-role="unknown" data-semantic-font="normal" data-semantic-annotation="clearspeak:unit" data-semantic-id="0" data-semantic-speech="hyphen 4">
                <use data-c="2D" xlink:href="#MJX-4-TEX-N-2D"/>
                <use data-c="34" xlink:href="#MJX-4-TEX-N-34" transform="translate(333,0)"/>
              </g>
            </g>
          </g>
        </svg>
      </g>
    </g>
    <g id="label-3" transform="translate(95.0,166.0) translate(-7.5,-0.0)">
      <g id="g-4">
        <svg xmlns:xlink="http://www.w3.org/1999/xlink" style="vertical-align: 0.000px" width="15.080px" height="12.056px" role="img" focusable="false" viewBox="0 -666 833 666" x="0.0" y="0.0">
          <defs>
            <path id="MJX-5-TEX-N-2D" d="M11 179V252H277V179H11Z"/>
            <path id="MJX-5-TEX-N-32" d="M109 429Q82 429 66 447T50 491Q50 562 103 614T235 666Q326 666 387 610T449 465Q449 422 429 383T381 315T301 241Q265 210 201 149L142 93L218 92Q375 92 385 97Q392 99 409 186V189H449V186Q448 183 436 95T421 3V0H50V19V31Q50 38 56 46T86 81Q115 113 136 137Q145 147 170 174T204 211T233 244T261 278T284 308T305 340T320 369T333 401T340 431T343 464Q343 527 309 573T212 619Q179 619 154 602T119 569T109 550Q109 549 114 549Q132 549 151 535T170 489Q170 464 154 447T109 429Z"/>
          </defs>
          <g stroke="currentColor" fill="currentColor" stroke-width="0" transform="scale(1,-1)">
            <g data-mml-node="math">
              <g data-mml-node="mtext" data-semantic-type="text" data-semantic-role="unknown" data-semantic-font="normal" data-semantic-annotation="clearspeak:unit" data-semantic-id="0" data-semantic-speech="hyphen 2">
                <use data-c="2D" xlink:href="#MJX-5-TEX-N-2D"/>
                <use data-c="32" xlink:href="#MJX-5-TEX-N-32" transform="translate(333,0)"/>
              </g>
            </g>
          </g>
        </svg>
      </g>
    </g>
    <g id="label-4" transform="translate(215.0,166.0) translate(-4.5,-0.0)">
      <g id="g-5">
        <svg xmlns:xlink="http://www.w3.org/1999/xlink" style="vertical-align: 0.000px" width="9.048px" height="12.056px" role="img" focusable="false" viewBox="0 -666 500 666" x="0.0" y="0.0">
          <defs>
            <path id="MJX-6-TEX-N-32" d="M109 429Q82 429 66 447T50 491Q50 562 103 614T235 666Q326 666 387 610T449 465Q449 422 429 383T381 315T301 241Q265 210 201 149L142 93L218 92Q375 92 385 97Q392 99 409 186V189H449V186Q448 183 436 95T421 3V0H50V19V31Q50 38 56 46T86 81Q115 113 136 137Q145 147 170 174T204 211T233 244T261 278T284 308T305 340T320 369T333 401T340 431T343 464Q343 527 309 573T212 619Q179 619 154 602T119 569T109 550Q109 549 114 549Q132 549 151 535T170 489Q170 464 154 447T109 429Z"/>
          </defs>
          <g stroke="currentColor" fill="currentColor" stroke-width="0" transform="scale(1,-1)">
            <g data-mml-node="math">
              <g data-mml-node="mtext" data-semantic-type="text" data-semantic-role="integer" data-semantic-font="normal" data-semantic-annotation="clearspeak:unit" data-semantic-id="0" data-semantic-speech="2">
                <use data-c="32" xlink:href="#MJX-6-TEX-N-32"/>
              </g>
            </g>
          </g>
        </svg>
      </g>
    </g>
    <g id="label-5" transform="translate(275.0,166.0) translate(-4.5,-0.0)">
      <g id="g-6">
        <svg xmlns:xlink="http://www.w3.org/1999/xlink" style="vertical-align: 0.000px" width="9.048px" height="12.256px" role="img" focusable="false" viewBox="0 -677 500 677" x="0.0" y="0.0">
          <defs>
            <path id="MJX-7-TEX-N-34" d="M462 0Q444 3 333 3Q217 3 199 0H190V46H221Q241 46 248 46T265 48T279 53T286 61Q287 63 287 115V165H28V211L179 442Q332 674 334 675Q336 677 355 677H373L379 671V211H471V165H379V114Q379 73 379 66T385 54Q393 47 442 46H471V0H462ZM293 211V545L74 212L183 211H293Z"/>
          </defs>
          <g stroke="currentColor" fill="currentColor" stroke-width="0" transform="scale(1,-1)">
            <g data-mml-node="math">
              <g data-mml-node="mtext" data-semantic-type="text" data-semantic-role="integer" data-semantic-font="normal" data-semantic-annotation="clearspeak:unit" data-semantic-id="0" data-semantic-speech="4">
                <use data-c="34" xlink:href="#MJX-7-TEX-N-34"/>
              </g>
            </g>
          </g>
        </svg>
      </g>
    </g>
    <g id="label-6" transform="translate(144.0,275.0) translate(-15.1,-6.1)">
      <g id="g-7">
        <svg xmlns:xlink="http://www.w3.org/1999/xlink" style="vertical-align: 0.000px" width="15.080px" height="12.256px" role="img" focusable="false" viewBox="0 -677 833 677" x="0.0" y="0.0">
          <defs>
            <path id="MJX-8-TEX-N-2D" d="M11 179V252H277V179H11Z"/>
            <path id="MJX-8-TEX-N-34" d="M462 0Q444 3 333 3Q217 3 199 0H190V46H221Q241 46 248 46T265 48T279 53T286 61Q287 63 287 115V165H28V211L179 442Q332 674 334 675Q336 677 355 677H373L379 671V211H471V165H379V114Q379 73 379 66T385 54Q393 47 442 46H471V0H462ZM293 211V545L74 212L183 211H293Z"/>
          </defs>
          <g stroke="currentColor" fill="currentColor" stroke-width="0" transform="scale(1,-1)">
            <g data-mml-node="math">
              <g data-mml-node="mtext" data-semantic-type="text" data-semantic-role="unknown" data-semantic-font="normal" data-semantic-annotation="clearspeak:unit" data-semantic-id="0" data-semantic-speech="hyphen 4">
                <use data-c="2D" xlink:href="#MJX-8-TEX-N-2D"/>
                <use data-c="34" xlink:href="#MJX-8-TEX-N-34" transform="translate(333,0)"/>
              </g>
            </g>
          </g>
        </svg>
      </g>
    </g>
    <g id="label-7" transform="translate(144.0,215.0) translate(-15.1,-6.0)">
      <g id="g-8">
        <svg xmlns:xlink="http://www.w3.org/1999/xlink" style="vertical-align: 0.000px" width="15.080px" height="12.056px" role="img" focusable="false" viewBox="0 -666 833 666" x="0.0" y="0.0">
          <defs>
            <path id="MJX-9-TEX-N-2D" d="M11 179V252H277V179H11Z"/>
            <path id="MJX-9-TEX-N-32" d="M109 429Q82 429 66 447T50 491Q50 562 103 614T235 666Q326 666 387 610T449 465Q449 422 429 383T381 315T301 241Q265 210 201 149L142 93L218 92Q375 92 385 97Q392 99 409 186V189H449V186Q448 183 436 95T421 3V0H50V19V31Q50 38 56 46T86 81Q115 113 136 137Q145 147 170 174T204 211T233 244T261 278T284 308T305 340T320 369T333 401T340 431T343 464Q343 527 309 573T212 619Q179 619 154 602T119 569T109 550Q109 549 114 549Q132 549 151 535T170 489Q170 464 154 447T109 429Z"/>
          </defs>
          <g stroke="currentColor" fill="currentColor" stroke-width="0" transform="scale(1,-1)">
            <g data-mml-node="math">
              <g data-mml-node="mtext" data-semantic-type="text" data-semantic-role="unknown" data-semantic-font="normal" data-semantic-annotation="clearspeak:unit" data-semantic-id="0" data-semantic-speech="hyphen 2">
                <use data-c="2D" xlink:href="#MJX-9-TEX-N-2D"/>
                <use data-c="32" xlink:href="#MJX-9-TEX-N-32" transform="translate(333,0)"/>
              </g>
            </g>
          </g>
        </svg>
      </g>
    </g>
    <g id="label-8" transform="translate(144.0,95.0) translate(-9.0,-6.0)">
      <g id="g-9">
        <svg xmlns:xlink="http://www.w3.org/1999/xlink" style="vertical-align: 0.000px" width="9.048px" height="12.056px" role="img" focusable="false" viewBox="0 -666 500 666" x="0.0" y="0.0">
          <defs>
            <path id="MJX-10-TEX-N-32" d="M109 429Q82 429 66 447T50 491Q50 562 103 614T235 666Q326 666 387 610T449 465Q449 422 429 383T381 315T301 241Q265 210 201 149L142 93L218 92Q375 92 385 97Q392 99 409 186V189H449V186Q448 183 436 95T421 3V0H50V19V31Q50 38 56 46T86 81Q115 113 136 137Q145 147 170 174T204 211T233 244T261 278T284 308T305 340T320 369T333 401T340 431T343 464Q343 527 309 573T212 619Q179 619 154 602T119 569T109 550Q109 549 114 549Q132 549 151 535T170 489Q170 464 154 447T109 429Z"/>
          </defs>
          <g stroke="currentColor" fill="currentColor" stroke-width="0" transform="scale(1,-1)">
            <g data-mml-node="math">
              <g data-mml-node="mtext" data-semantic-type="text" data-semantic-role="integer" data-semantic-font="normal" data-semantic-annotation="clearspeak:unit" data-semantic-id="0" data-semantic-speech="2">
                <use data-c="32" xlink:href="#MJX-10-TEX-N-32"/>
              </g>
            </g>
          </g>
        </svg>
      </g>
    </g>
    <g id="label-9" transform="translate(144.0,35.0) translate(-9.0,-6.1)">
      <g id="g-10">
        <svg xmlns:xlink="http://www.w3.org/1999/xlink" style="vertical-align: 0.000px" width="9.048px" height="12.256px" role="img" focusable="false" viewBox="0 -677 500 677" x="0.0" y="0.0">
          <defs>
            <path id="MJX-11-TEX-N-34" d="M462 0Q444 3 333 3Q217 3 199 0H190V46H221Q241 46 248 46T265 48T279 53T286 61Q287 63 287 115V165H28V211L179 442Q332 674 334 675Q336 677 355 677H373L379 671V211H471V165H379V114Q379 73 379 66T385 54Q393 47 442 46H471V0H462ZM293 211V545L74 212L183 211H293Z"/>
          </defs>
          <g stroke="currentColor" fill="currentColor" stroke-width="0" transform="scale(1,-1)">
            <g data-mml-node="math">
              <g data-mml-node="mtext" data-semantic-type="text" data-semantic-role="integer" data-semantic-font="normal" data-semantic-annotation="clearspeak:unit" data-semantic-id="0" data-semantic-speech="4">
                <use data-c="34" xlink:href="#MJX-11-TEX-N-34"/>
              </g>
            </g>
          </g>
        </svg>
      </g>
    </g>
  </g>
  <g id="g-0">
    <path id="graph-0" stroke="blue" stroke-width="2" fill="none" d="M 5.0 365.0 L 6.5 356.1 L 8.0 347.3 L 9.5 338.7 L 11.0 330.2 L 12.5 321.9 L 14.0 313.7 L 15.5 305.7 L 17.0 297.8 L 18.5 290.1 L 20.0 282.5 L 21.5 275.1 L 23.0 267.8 L 24.5 260.7 L 26.0 253.7 L 27.5 246.9 L 29.0 240.2 L 30.5 233.7 L 32.0 227.3 L 33.5 221.1 L 35.0 215.0 L 36.5 209.1 L 38.0 203.3 L 39.5 197.7 L 41.0 192.2 L 42.5 186.9 L 44.0 181.7 L 45.5 176.7 L 47.0 171.8 L 48.5 167.1 L 50.0 162.5 L 51.5 158.1 L 53.0 153.8 L 54.5 149.7 L 56.0 145.7 L 57.5 141.9 L 59.0 138.2 L 60.5 134.7 L 62.0 131.3 L 63.5 128.1 L 65.0 125.0 L 66.5 122.1 L 68.0 119.3 L 69.5 116.7 L 71.0 114.2 L 72.5 111.9 L 74.0 109.7 L 75.5 107.7 L 77.0 105.8 L 78.5 104.1 L 80.0 102.5 L 81.5 101.1 L 83.0 99.8 L 84.5 98.7 L 86.0 97.7 L 87.5 96.9 L 89.0 96.2 L 90.5 95.7 L 92.0 95.3 L 93.5 95.1 L 95.0 95.0 L 96.5 95.1 L 98.0 95.3 L 99.5 95.7 L 101.0 96.2 L 102.5 96.9 L 104.0 97.7 L 105.5 98.7 L 107.0 99.8 L 108.5 101.1 L 110.0 102.5 L 111.5 104.1 L 113.0 105.8 L 114.5 107.7 L 116.0 109.7 L 117.5 111.9 L 119.0 114.2 L 120.5 116.7 L 122.0 119.3 L 123.5 122.1 L 125.0 125.0 L 126.5 128.1 L 128.0 131.3 L 129.5 134.7 L 131.0 138.2 L 132.5 141.9 L 134.0 145.7 L 135.5 149.7 L 137.0 153.8 L 138.5 158.1 L 140.0 162.5 L 141.5 167.1 L 143.0 171.8 L 144.5 176.7 L 146.0 181.7 L 147.5 186.9 L 149.0 192.2 L 150.5 197.7 L 152.0 203.3 L 153.5 209.1 L 155.0 215.0" clip-path="url(#clipPath-1)"/>
    <path id="graph-1" stroke="blue" stroke-width="2" fill="none" d="M 155.0 65.0 L 156.5 68.0 L 158.0 70.9 L 159.5 73.7 L 161.0 76.4 L 162.5 79.1 L 164.0 81.7 L 165.5 84.2 L 167.0 86.6 L 168.5 89.0 L 170.0 91.2 L 171.5 93.5 L 173.0 95.6 L 174.5 97.7 L 176.0 99.7 L 177.5 101.6 L 179.0 103.4 L 180.5 105.2 L 182.0 106.8 L 183.5 108.5 L 185.0 110.0 L 186.5 111.5 L 188.0 112.9 L 189.5 114.2 L 191.0 115.4 L 192.5 116.6 L 194.0 117.7 L 195.5 118.7 L 197.0 119.6 L 198.5 120.5 L 200.0 121.2 L 201.5 122.0 L 203.0 122.6 L 204.5 123.2 L 206.0 123.7 L 207.5 124.1 L 209.0 124.4 L 210.5 124.7 L 212.0 124.8 L 213.5 125.0 L 215.0 125.0 L 216.5 125.0 L 218.0 124.8 L 219.5 124.7 L 221.0 124.4 L 222.5 124.1 L 224.0 123.6 L 225.5 123.2 L 227.0 122.6 L 228.5 122.0 L 230.0 121.2 L 231.5 120.5 L 233.0 119.6 L 234.5 118.7 L 236.0 117.7 L 237.5 116.6 L 239.0 115.4 L 240.5 114.2 L 242.0 112.8 L 243.5 111.5 L 245.0 110.0 L 246.5 108.5 L 248.0 106.8 L 249.5 105.2 L 251.0 103.4 L 252.5 101.6 L 254.0 99.6 L 255.5 97.7 L 257.0 95.6 L 258.5 93.5 L 260.0 91.2 L 261.5 89.0 L 263.0 86.6 L 264.5 84.2 L 266.0 81.6 L 267.5 79.1 L 269.0 76.4 L 270.5 73.7 L 272.0 70.8 L 273.5 68.0 L 275.0 65.0 L 276.5 62.0 L 278.0 58.8 L 279.5 55.7 L 281.0 52.4 L 282.5 49.1 L 284.0 45.7 L 285.5 42.2 L 287.0 38.6 L 288.5 35.0 L 290.0 31.2 L 291.5 27.5 L 293.0 23.6 L 294.5 19.7 L 296.0 15.6 L 297.5 11.6 L 299.0 7.4 L 300.5 3.2 L 302.0 -1.2 L 303.5 -5.5 L 305.0 -10.0" clip-path="url(#clipPath-1)"/>
  </g>
  <circle id="circle-0" cx="155.0" cy="215.0" r="4" stroke="black" stroke-width="2" fill="white"/>
  <circle id="circle-1" cx="155.0" cy="65.0" r="4" stroke="black" stroke-width="2" fill="blue"/>
  <g id="label-10" transform="translate(91.0,46.0) translate(-33.5,-18.1)">
    <rect x="-6" y="-6" width="45.536" height="30.096" stroke="none" fill="white"/>
    <g id="g-11">
      <svg xmlns:xlink="http://www.w3.org/1999/xlink" style="vertical-align: -4.528px" width="33.536px" height="18.096px" role="img" focusable="false" viewBox="0 -750 1853 1000" x="0.0" y="0.0">
        <defs>
          <path id="MJX-12-TEX-I-1D45D" d="M23 287Q24 290 25 295T30 317T40 348T55 381T75 411T101 433T134 442Q209 442 230 378L240 387Q302 442 358 442Q423 442 460 395T497 281Q497 173 421 82T249 -10Q227 -10 210 -4Q199 1 187 11T168 28L161 36Q160 35 139 -51T118 -138Q118 -144 126 -145T163 -148H188Q194 -155 194 -157T191 -175Q188 -187 185 -190T172 -194Q170 -194 161 -194T127 -193T65 -192Q-5 -192 -24 -194H-32Q-39 -187 -39 -183Q-37 -156 -26 -148H-6Q28 -147 33 -136Q36 -130 94 103T155 350Q156 355 156 364Q156 405 131 405Q109 405 94 377T71 316T59 280Q57 278 43 278H29Q23 284 23 287ZM178 102Q200 26 252 26Q282 26 310 49T356 107Q374 141 392 215T411 325V331Q411 405 350 405Q339 405 328 402T306 393T286 380T269 365T254 350T243 336T235 326L232 322Q232 321 229 308T218 264T204 212Q178 106 178 102Z"/>
          <path id="MJX-12-TEX-N-2061" d=""/>
          <path id="MJX-12-TEX-N-28" d="M94 250Q94 319 104 381T127 488T164 576T202 643T244 695T277 729T302 750H315H319Q333 750 333 741Q333 738 316 720T275 667T226 581T184 443T167 250T184 58T225 -81T274 -167T316 -220T333 -241Q333 -250 318 -250H315H302L274 -226Q180 -141 137 -14T94 250Z"/>
          <path id="MJX-12-TEX-I-1D465" d="M52 289Q59 331 106 386T222 442Q257 442 286 424T329 379Q371 442 430 442Q467 442 494 420T522 361Q522 332 508 314T481 292T458 288Q439 288 427 299T415 328Q415 374 465 391Q454 404 425 404Q412 404 406 402Q368 386 350 336Q290 115 290 78Q290 50 306 38T341 26Q378 26 414 59T463 140Q466 150 469 151T485 153H489Q504 153 504 145Q504 144 502 134Q486 77 440 33T333 -11Q263 -11 227 52Q186 -10 133 -10H127Q78 -10 57 16T35 71Q35 103 54 123T99 143Q142 143 142 101Q142 81 130 66T107 46T94 41L91 40Q91 39 97 36T113 29T132 26Q168 26 194 71Q203 87 217 139T245 247T261 313Q266 340 266 352Q266 380 251 392T217 404Q177 404 142 372T93 290Q91 281 88 280T72 278H58Q52 284 52 289Z"/>
          <path id="MJX-12-TEX-N-29" d="M60 749L64 750Q69 750 74 750H86L114 726Q208 641 251 514T294 250Q294 182 284 119T261 12T224 -76T186 -143T145 -194T113 -227T90 -246Q87 -249 86 -250H74Q66 -250 63 -250T58 -247T55 -238Q56 -237 66 -225Q221 -64 221 250T66 725Q56 737 55 738Q55 746 60 749Z"/>
        </defs>
        <g stroke="currentColor" fill="currentColor" stroke-width="0" transform="scale(1,-1)">
          <g data-mml-node="math" data-semantic-type="appl" data-semantic-role="simple function" data-semantic-annotation="clearspeak:simple" data-semantic-id="6" data-semantic-children="0,4" data-semantic-content="5,0" data-semantic-speech="p left parenthesis x right parenthesis">
            <g data-mml-node="mi" data-semantic-type="identifier" data-semantic-role="simple function" data-semantic-font="italic" data-semantic-annotation="clearspeak:simple" data-semantic-id="0" data-semantic-parent="6" data-semantic-operator="appl" data-semantic-speech="p">
              <use data-c="1D45D" xlink:href="#MJX-12-TEX-I-1D45D"/>
            </g>
            <g data-mml-node="mo" data-semantic-type="punctuation" data-semantic-role="application" data-semantic-id="5" data-semantic-parent="6" data-semantic-added="true" data-semantic-operator="appl" data-semantic-speech="of" transform="translate(503,0)">
              <use data-c="2061" xlink:href="#MJX-12-TEX-N-2061"/>
            </g>
            <g data-mml-node="mrow" data-semantic-type="fenced" data-semantic-role="leftright" data-semantic-id="4" data-semantic-children="2" data-semantic-content="1,3" data-semantic-parent="6" data-semantic-speech="left parenthesis x right parenthesis" transform="translate(503,0)">
              <g data-mml-node="mo" data-semantic-type="fence" data-semantic-role="open" data-semantic-id="1" data-semantic-parent="4" data-semantic-operator="fenced" data-semantic-speech="left parenthesis">
                <use data-c="28" xlink:href="#MJX-12-TEX-N-28"/>
              </g>
              <g data-mml-node="mi" data-semantic-type="identifier" data-semantic-role="latinletter" data-semantic-font="italic" data-semantic-annotation="clearspeak:simple" data-semantic-id="2" data-semantic-parent="4" data-semantic-speech="x" transform="translate(389,0)">
                <use data-c="1D465" xlink:href="#MJX-12-TEX-I-1D465"/>
              </g>
              <g data-mml-node="mo" data-semantic-type="fence" data-semantic-role="close" data-semantic-id="3" data-semantic-parent="4" data-semantic-operator="fenced" data-semantic-speech="right parenthesis" transform="translate(961,0)">
                <use data-c="29" xlink:href="#MJX-12-TEX-N-29"/>
              </g>
            </g>
          </g>
        </g>
      </svg>
    </g>
  </g>
</svg>
